<svg xmlns="http://www.w3.org/2000/svg" viewBox="0 0 512 512">
  <defs>
    <linearGradient id="bg" x1="0%" y1="0%" x2="100%" y2="100%">
      <stop offset="0%" style="stop-color:#B34A19;stop-opacity:1" />
      <stop offset="100%" style="stop-color:#8B3514;stop-opacity:1" />
    </linearGradient>
    <linearGradient id="brain" x1="0%" y1="0%" x2="100%" y2="100%">
      <stop offset="0%" style="stop-color:#FFFFFF;stop-opacity:1" />
      <stop offset="100%" style="stop-color:#FEF3ED;stop-opacity:0.95" />
    </linearGradient>
  </defs>
  <!-- Background rounded square -->
  <rect width="512" height="512" rx="108" ry="108" fill="url(#bg)"/>
  <!-- Brain icon centered (scaled Lucide brain path) -->
  <g transform="translate(96, 16) scale(1.25)">
    <!-- Brain outline -->
    <path d="M160 128c0-35.3-28.7-64-64-64C68.7 64 48 76.3 36.8 96A64 64 0 0 0 0 160c0 23.7 12.9 44.3 32 55.4V256c0 35.3 28.7 64 64 64h64V128z" fill="none" stroke="url(#brain)" stroke-width="14" stroke-linecap="round" stroke-linejoin="round"/>
    <path d="M96 128c0-35.3 28.7-64 64-64c27.3 0 48 12.3 59.2 32A64 64 0 0 1 256 160c0 23.7-12.9 44.3-32 55.4V256c0 35.3-28.7 64-64 64H96V128z" fill="none" stroke="url(#brain)" stroke-width="14" stroke-linecap="round" stroke-linejoin="round"/>
    <!-- Brain center line -->
    <line x1="128" y1="64" x2="128" y2="320" stroke="url(#brain)" stroke-width="10" stroke-linecap="round" opacity="0.6"/>
    <!-- Brain folds -->
    <path d="M48 160 Q88 140 128 160" fill="none" stroke="url(#brain)" stroke-width="10" stroke-linecap="round" opacity="0.7"/>
    <path d="M128 160 Q168 140 208 160" fill="none" stroke="url(#brain)" stroke-width="10" stroke-linecap="round" opacity="0.7"/>
    <path d="M56 208 Q92 190 128 208" fill="none" stroke="url(#brain)" stroke-width="10" stroke-linecap="round" opacity="0.5"/>
    <path d="M128 208 Q164 190 200 208" fill="none" stroke="url(#brain)" stroke-width="10" stroke-linecap="round" opacity="0.5"/>
    <!-- Neural dots -->
    <circle cx="80" cy="140" r="6" fill="url(#brain)" opacity="0.8"/>
    <circle cx="176" cy="140" r="6" fill="url(#brain)" opacity="0.8"/>
    <circle cx="128" cy="112" r="5" fill="url(#brain)" opacity="0.6"/>
    <circle cx="96" cy="240" r="5" fill="url(#brain)" opacity="0.5"/>
    <circle cx="160" cy="240" r="5" fill="url(#brain)" opacity="0.5"/>
  </g>
</svg>
